<svg version="1.1" id="Layer_1" xmlns="http://www.w3.org/2000/svg" xmlns:xlink="http://www.w3.org/1999/xlink" x="0px" y="0px"
	 width="100%" viewBox="0 0 792 498" enable-background="new 0 0 792 498" xml:space="preserve">
<path fill="#C57034" opacity="1.000000" stroke="none" 
	d="
M1.000000,238.468658 
	C129.326157,238.477280 257.652344,238.946625 385.978485,239.434906 
	C458.807251,239.712006 531.635803,240.046860 604.464661,240.299911 
	C630.293762,240.389648 656.123413,240.314270 682.498840,240.314270 
	C681.485657,238.991653 680.470337,237.613846 679.401550,236.278839 
	C658.574585,210.265671 637.707214,184.284637 616.984436,158.188782 
	C615.565063,156.401382 614.503479,153.769623 614.480347,151.518173 
	C614.155151,119.854721 614.038330,88.189148 613.878357,56.524052 
	C613.875061,55.878849 613.960449,55.233192 614.099060,53.200417 
	C673.821411,127.809418 732.858704,201.562561 792.243286,275.749481 
	C733.114075,349.124420 673.996399,422.485077 614.258789,496.615021 
	C614.041504,494.638763 613.835266,493.594452 613.824951,492.548279 
	C613.540161,463.552124 613.206421,434.556000 613.127869,405.559174 
	C613.120972,403.021362 614.205322,399.988129 615.805054,398.013062 
	C636.464600,372.506348 657.310852,347.150879 678.105103,321.753174 
	C679.139221,320.490051 680.128174,319.189941 681.994629,316.819092 
	C454.596741,315.579773 228.264206,314.346252 1.465826,313.056366 
	C1.000000,288.312439 1.000000,263.624878 1.000000,238.468658 
z"/>
<path fill="#C67135" opacity="1.000000" stroke="none" 
	d="
M1.000000,8.468657 
	C3.163358,8.049156 5.326713,8.141146 7.490075,8.141310 
	C102.130333,8.148449 196.770599,8.147470 291.410858,8.147470 
	C293.382111,8.147470 295.353333,8.147470 297.662964,8.147470 
	C297.662964,22.069090 297.662964,35.631912 297.662964,49.878933 
	C199.076645,49.878933 100.503738,49.878933 1.465413,49.939468 
	C1.000000,36.312439 1.000000,22.624876 1.000000,8.468657 
z"/>
<path fill="#C56F33" opacity="1.000000" stroke="none" 
	d="
M1.000000,100.468658 
	C2.663021,99.948784 4.326039,99.852882 5.989064,99.852760 
	C101.282013,99.845589 196.574966,99.846367 291.867920,99.846367 
	C293.683899,99.846367 295.499878,99.846367 297.656952,99.846367 
	C297.656952,113.341423 297.656952,126.564476 297.656952,140.118912 
	C296.314056,140.218811 295.039398,140.396515 293.764740,140.396652 
	C196.972443,140.407318 100.180145,140.404099 3.387850,140.398529 
	C2.888930,140.398499 2.390011,140.349838 1.445546,140.161957 
	C1.000000,126.979103 1.000000,113.958214 1.000000,100.468658 
z"/>
</svg>